<?xml version="1.0" encoding="UTF-8" standalone="no"?><svg xmlns="http://www.w3.org/2000/svg" xmlns:xlink="http://www.w3.org/1999/xlink" contentStyleType="text/css" height="624px" preserveAspectRatio="none" style="width:331px;height:624px;background:#FFFFFF;" version="1.1" viewBox="0 0 331 624" width="331px" zoomAndPan="magnify"><defs/><g><!--MD5=[1d3308a050e4b472ad871965582028ae]
class Voiture--><g id="elem_Voiture"><rect codeLine="2" fill="#F1F1F1" height="163.418" id="Voiture" rx="2.5" ry="2.5" style="stroke:#181818;stroke-width:0.5;" width="103" x="33" y="454"/><ellipse cx="57.45" cy="470" fill="#ADD1B2" rx="11" ry="11" style="stroke:#181818;stroke-width:1.0;"/><path d="M61.0643,476.5 L53.3445,476.5 L53.3445,464.1069 L61.0643,464.1069 L61.0643,466.2651 L55.7933,466.2651 L55.7933,468.938 L60.5662,468.938 L60.5662,471.0962 L55.7933,471.0962 L55.7933,474.3418 L61.0643,474.3418 Z " fill="#000000"/><text fill="#000000" font-family="sans-serif" font-size="14" lengthAdjust="spacing" textLength="50" x="73.55" y="475.291">Voiture</text><line style="stroke:#181818;stroke-width:0.5;" x1="34" x2="135" y1="486" y2="486"/><text fill="#000000" font-family="sans-serif" font-size="14" lengthAdjust="spacing" textLength="80" x="39" y="503.5352">numroSerie</text><text fill="#000000" font-family="sans-serif" font-size="14" lengthAdjust="spacing" textLength="53" x="39" y="520.0234">marque</text><text fill="#000000" font-family="sans-serif" font-size="14" lengthAdjust="spacing" textLength="51" x="39" y="536.5117">modele</text><text fill="#000000" font-family="sans-serif" font-size="14" lengthAdjust="spacing" textLength="52" x="39" y="553">couleur</text><text fill="#000000" font-family="sans-serif" font-size="14" lengthAdjust="spacing" textLength="69" x="39" y="569.4883">dateAchat</text><text fill="#000000" font-family="sans-serif" font-size="14" lengthAdjust="spacing" textLength="87" x="39" y="585.9766">dateRevision</text><text fill="#000000" font-family="sans-serif" font-size="14" lengthAdjust="spacing" textLength="91" x="39" y="602.4648">descriptionFr</text><line style="stroke:#181818;stroke-width:0.5;" x1="34" x2="135" y1="609.418" y2="609.418"/></g><!--MD5=[4f1f3706c1a355a8488e154afcaed5df]
class Location--><g id="elem_Location"><rect codeLine="12" fill="#F1F1F1" height="179.9063" id="Location" rx="2.5" ry="2.5" style="stroke:#181818;stroke-width:0.5;" width="129" x="20" y="214"/><ellipse cx="52.55" cy="230" fill="#ADD1B2" rx="11" ry="11" style="stroke:#181818;stroke-width:1.0;"/><path d="M56.1643,236.5 L48.4445,236.5 L48.4445,224.1069 L56.1643,224.1069 L56.1643,226.2651 L50.8933,226.2651 L50.8933,228.938 L55.6662,228.938 L55.6662,231.0962 L50.8933,231.0962 L50.8933,234.3418 L56.1643,234.3418 Z " fill="#000000"/><text fill="#000000" font-family="sans-serif" font-size="14" lengthAdjust="spacing" textLength="58" x="70.45" y="235.291">Location</text><line style="stroke:#181818;stroke-width:0.5;" x1="21" x2="148" y1="246" y2="246"/><text fill="#000000" font-family="sans-serif" font-size="14" lengthAdjust="spacing" textLength="117" x="26" y="263.5352">dateDebutPrevue</text><text fill="#000000" font-family="sans-serif" font-size="14" lengthAdjust="spacing" textLength="112" x="26" y="280.0234">dateDebutReelle</text><text fill="#000000" font-family="sans-serif" font-size="14" lengthAdjust="spacing" textLength="97" x="26" y="296.5117">dateFinPrevue</text><text fill="#000000" font-family="sans-serif" font-size="14" lengthAdjust="spacing" textLength="92" x="26" y="313">dateFinReelle</text><text fill="#000000" font-family="sans-serif" font-size="14" lengthAdjust="spacing" textLength="62" x="26" y="329.4883">kmDebut</text><text fill="#000000" font-family="sans-serif" font-size="14" lengthAdjust="spacing" textLength="42" x="26" y="345.9766">kmFin</text><text fill="#000000" font-family="sans-serif" font-size="14" lengthAdjust="spacing" textLength="95" x="26" y="362.4648">essenceDebut</text><text fill="#000000" font-family="sans-serif" font-size="14" lengthAdjust="spacing" textLength="75" x="26" y="378.9531">essenceFin</text><line style="stroke:#181818;stroke-width:0.5;" x1="21" x2="148" y1="385.9063" y2="385.9063"/></g><!--MD5=[ed6624c6556d5e7b1bd23032162d20b7]
class Client--><g id="elem_Client"><rect codeLine="23" fill="#F1F1F1" height="130.4414" id="Client" rx="2.5" ry="2.5" style="stroke:#181818;stroke-width:0.5;" width="139" x="7" y="15.5"/><ellipse cx="52.25" cy="31.5" fill="#ADD1B2" rx="11" ry="11" style="stroke:#181818;stroke-width:1.0;"/><path d="M55.8643,38 L48.1445,38 L48.1445,25.6069 L55.8643,25.6069 L55.8643,27.7651 L50.5933,27.7651 L50.5933,30.438 L55.3662,30.438 L55.3662,32.5962 L50.5933,32.5962 L50.5933,35.8418 L55.8643,35.8418 Z " fill="#000000"/><text fill="#000000" font-family="sans-serif" font-size="14" lengthAdjust="spacing" textLength="40" x="72.75" y="36.791">Client</text><line style="stroke:#181818;stroke-width:0.5;" x1="8" x2="145" y1="47.5" y2="47.5"/><text fill="#000000" font-family="sans-serif" font-size="14" lengthAdjust="spacing" textLength="31" x="13" y="65.0352">nom</text><text fill="#000000" font-family="sans-serif" font-size="14" lengthAdjust="spacing" textLength="54" x="13" y="81.5234">prenom</text><text fill="#000000" font-family="sans-serif" font-size="14" lengthAdjust="spacing" textLength="98" x="13" y="98.0117">dateNaissance</text><text fill="#000000" font-family="sans-serif" font-size="14" lengthAdjust="spacing" textLength="100" x="13" y="114.5">numeroPermis</text><text fill="#000000" font-family="sans-serif" font-size="14" lengthAdjust="spacing" textLength="127" x="13" y="130.9883">numeroTelephone</text><line style="stroke:#181818;stroke-width:0.5;" x1="8" x2="145" y1="137.9414" y2="137.9414"/></g><!--MD5=[35685f3a7cfa9b8c7e0d937a7282288f]
class Facture--><g id="elem_Facture"><rect codeLine="31" fill="#F1F1F1" height="146.9297" id="Facture" rx="2.5" ry="2.5" style="stroke:#181818;stroke-width:0.5;" width="143" x="181" y="7"/><ellipse cx="223" cy="23" fill="#ADD1B2" rx="11" ry="11" style="stroke:#181818;stroke-width:1.0;"/><path d="M226.6143,29.5 L218.8945,29.5 L218.8945,17.1069 L226.6143,17.1069 L226.6143,19.2651 L221.3433,19.2651 L221.3433,21.938 L226.1162,21.938 L226.1162,24.0962 L221.3433,24.0962 L221.3433,27.3418 L226.6143,27.3418 Z " fill="#000000"/><text fill="#000000" font-family="sans-serif" font-size="14" lengthAdjust="spacing" textLength="51" x="243" y="28.291">Facture</text><line style="stroke:#181818;stroke-width:0.5;" x1="182" x2="323" y1="39" y2="39"/><text fill="#000000" font-family="sans-serif" font-size="14" lengthAdjust="spacing" textLength="81" x="187" y="56.5352">dateFacture</text><text fill="#000000" font-family="sans-serif" font-size="14" lengthAdjust="spacing" textLength="131" x="187" y="73.0234">montantHorsTaxes</text><text fill="#000000" font-family="sans-serif" font-size="14" lengthAdjust="spacing" textLength="77" x="187" y="89.5117">description</text><text fill="#000000" font-family="sans-serif" font-size="14" lengthAdjust="spacing" textLength="59" x="187" y="106">taxeTVQ</text><text fill="#000000" font-family="sans-serif" font-size="14" lengthAdjust="spacing" textLength="55" x="187" y="122.4883">taxeTPS</text><text fill="#000000" font-family="sans-serif" font-size="14" lengthAdjust="spacing" textLength="93" x="187" y="138.9766">montantTotal</text><line style="stroke:#181818;stroke-width:0.5;" x1="182" x2="323" y1="145.9297" y2="145.9297"/></g><!--MD5=[4d64fa432563955166700d6c4408ce94]
class FactureDetail--><g id="elem_FactureDetail"><rect codeLine="40" fill="#F1F1F1" height="97.4648" id="FactureDetail" rx="2.5" ry="2.5" style="stroke:#181818;stroke-width:0.5;" width="122" x="191.5" y="255.5"/><ellipse cx="206.5" cy="271.5" fill="#ADD1B2" rx="11" ry="11" style="stroke:#181818;stroke-width:1.0;"/><path d="M210.1143,278 L202.3945,278 L202.3945,265.6069 L210.1143,265.6069 L210.1143,267.7651 L204.8433,267.7651 L204.8433,270.438 L209.6162,270.438 L209.6162,272.5962 L204.8433,272.5962 L204.8433,275.8418 L210.1143,275.8418 Z " fill="#000000"/><text fill="#000000" font-family="sans-serif" font-size="14" lengthAdjust="spacing" textLength="90" x="220.5" y="276.791">FactureDetail</text><line style="stroke:#181818;stroke-width:0.5;" x1="192.5" x2="312.5" y1="287.5" y2="287.5"/><text fill="#000000" font-family="sans-serif" font-size="14" lengthAdjust="spacing" textLength="82" x="197.5" y="305.0352">prixUnitaire</text><text fill="#000000" font-family="sans-serif" font-size="14" lengthAdjust="spacing" textLength="77" x="197.5" y="321.5234">description</text><text fill="#000000" font-family="sans-serif" font-size="14" lengthAdjust="spacing" textLength="72" x="197.5" y="338.0117">tauxTaxes</text><line style="stroke:#181818;stroke-width:0.5;" x1="192.5" x2="312.5" y1="344.9648" y2="344.9648"/></g><!--MD5=[3227841ad937e9c206975ea2bdb7b882]
link Client to Location--><g id="link_Client_Location"><path codeLine="46" d="M79.16,155.22 C79.73,171.04 80.35,188 80.95,204.59 " fill="none" id="Client-Location" style="stroke:#181818;stroke-width:1.0;"/><line style="stroke:#181818;stroke-width:1.0;" x1="80.934" x2="87.2162" y1="204.2451" y2="212.0255"/><line style="stroke:#181818;stroke-width:1.0;" x1="80.934" x2="75.2238" y1="204.2451" y2="212.4545"/><line style="stroke:#181818;stroke-width:1.0;" x1="80.934" x2="81.22" y1="204.2451" y2="212.24"/><ellipse cx="80.7194" cy="198.249" fill="none" rx="4" ry="4" style="stroke:#181818;stroke-width:1.0;"/><line style="stroke:#181818;stroke-width:1.0;" x1="75.0253" x2="83.0202" y1="151.5202" y2="151.2347"/><line style="stroke:#181818;stroke-width:1.0;" x1="75.1324" x2="83.1273" y1="154.5183" y2="154.2328"/><line style="stroke:#181818;stroke-width:1.0;" x1="79.1655" x2="78.88" y1="155.3749" y2="147.38"/></g><!--MD5=[cac4d1a4db15f1f366624297813333da]
link Location to Voiture--><g id="link_Location_Voiture"><path codeLine="47" d="M84.5,403.6 C84.5,417.15 84.5,431.01 84.5,444.4 " fill="none" id="Location-Voiture" style="stroke:#181818;stroke-width:1.0;"/><line style="stroke:#181818;stroke-width:1.0;" x1="88.5" x2="80.5" y1="448.08" y2="448.08"/><line style="stroke:#181818;stroke-width:1.0;" x1="88.5" x2="80.5" y1="445.08" y2="445.08"/><line style="stroke:#181818;stroke-width:1.0;" x1="84.5" x2="84.5" y1="444.08" y2="452.08"/><line style="stroke:#181818;stroke-width:1.0;" x1="84.5" x2="78.5" y1="403.9" y2="395.9"/><line style="stroke:#181818;stroke-width:1.0;" x1="84.5" x2="90.5" y1="403.9" y2="395.9"/><line style="stroke:#181818;stroke-width:1.0;" x1="84.5" x2="84.5" y1="403.9" y2="395.9"/><ellipse cx="84.5" cy="409.9" fill="none" rx="4" ry="4" style="stroke:#181818;stroke-width:1.0;"/></g><!--MD5=[11c8d61e95b8ab008c73d7ce55dd9873]
link Facture to Location--><g id="link_Facture_Location"><path codeLine="48" d="M191.82,161.5 C179.87,177.25 167.24,193.91 155,210.05 " fill="none" id="Facture-Location" style="stroke:#181818;stroke-width:1.0;"/><line style="stroke:#181818;stroke-width:1.0;" x1="155.9239" x2="149.548" y1="215.448" y2="210.6161"/><line style="stroke:#181818;stroke-width:1.0;" x1="157.7359" x2="151.36" y1="213.0571" y2="208.2251"/><line style="stroke:#181818;stroke-width:1.0;" x1="155.152" x2="150.32" y1="209.8441" y2="216.22"/><line style="stroke:#181818;stroke-width:1.0;" x1="189.6836" x2="196.34" y1="164.2974" y2="155.54"/><ellipse cx="189.6836" cy="164.2974" fill="none" rx="4" ry="4" style="stroke:#181818;stroke-width:1.0;"/><line style="stroke:#181818;stroke-width:1.0;" x1="190.735" x2="197.104" y1="156.304" y2="161.145"/></g><!--MD5=[5b6ddceafa20df46dea72c6926dae97f]
link Facture to FactureDetail--><g id="link_Facture_FactureDetail"><path codeLine="49" d="M252.5,163.79 C252.5,191.11 252.5,220.92 252.5,245.92 " fill="none" id="Facture-FactureDetail" style="stroke:#181818;stroke-width:1.0;"/><line style="stroke:#181818;stroke-width:1.0;" x1="252.5" x2="258.5" y1="245.73" y2="253.73"/><line style="stroke:#181818;stroke-width:1.0;" x1="252.5" x2="246.5" y1="245.73" y2="253.73"/><line style="stroke:#181818;stroke-width:1.0;" x1="252.5" x2="252.5" y1="245.73" y2="253.73"/><ellipse cx="252.5" cy="239.73" fill="none" rx="4" ry="4" style="stroke:#181818;stroke-width:1.0;"/><line style="stroke:#181818;stroke-width:1.0;" x1="248.5" x2="256.5" y1="159.85" y2="159.85"/><line style="stroke:#181818;stroke-width:1.0;" x1="248.5" x2="256.5" y1="162.85" y2="162.85"/><line style="stroke:#181818;stroke-width:1.0;" x1="252.5" x2="252.5" y1="163.85" y2="155.85"/></g><!--MD5=[e4529878994bbfff1447fb103806ee40]
@startuml erd_car_reservation_logique

entity Voiture {
    numroSerie
    marque
    modele
    couleur
    dateAchat
    dateRevision
    descriptionFr
}

entity Location {
    dateDebutPrevue
    dateDebutReelle
    dateFinPrevue
    dateFinReelle
    kmDebut
    kmFin
    essenceDebut
    essenceFin
}

entity Client {
    nom
    prenom
    dateNaissance
    numeroPermis
    numeroTelephone
}

entity Facture {
    dateFacture
    montantHorsTaxes
    description
    taxeTVQ
    taxeTPS
    montantTotal
}

entity FactureDetail {
    prixUnitaire
    description
    tauxTaxes
}

Client ||- -o{ Location
Location }o- -|| Voiture
Facture |o- -|| Location
Facture ||- -o{ FactureDetail

@enduml

PlantUML version 1.2022.7(Mon Aug 22 13:01:30 EDT 2022)
(GPL source distribution)
Java Runtime: OpenJDK Runtime Environment
JVM: OpenJDK 64-Bit Server VM
Default Encoding: UTF-8
Language: fr
Country: CA
--></g></svg>